extratorrent.com  
http://extratorrent.com/torrent/2258648/

Plot:
"Grandma Gangsters" is a remake of the German film "Now Or Never" (Jetzt Oder Nie - Zeit Ist Geld) directed by Lars Buchel.
Three elderly widows ? Jeong-ja (Nah Moon-hee), Yeong-heui (Kim Soo-mi) and Sin-ja (Kim Hye-ok) ? have worked hard for the past eight years to save 8.37 million won ? the exact cost of three VIP tour packages to Hawaii. They proudly head to the bank to wire the money, only to lose it to bank robbers. When the bank states that it reimburse the money, the trio seeks a bank robber Jun-seok (Im Chang-jeong) to master banditry. Will the grandmas, geared up with a real pistol and floral print masks, be able to make it to Hawaii?





 
General
Complete name                    : Grandma Gangsters 2010 DVDRip(Eng Sub) GoGo(Extra Torrent)Grandma Gangsters 2010 DVDRip(Eng Sub) GoGo(Extra Torrent).avi
Format                           : AVI
Format/Info                      : Audio Video Interleave
File size                        : 700 MiB
Duration                         : 1h 48mn
Overall bit rate                 : 903 Kbps
Writing application              : VirtualDubMod 1.5.4.1 (build 2178/release)
Writing library                  : VirtualDubMod build 2178/release

Video
ID                               : 0
Format                           : MPEG-4 Visual
Format profile                   : Advanced Simple@L5
Format settings, BVOP            : Yes
Format settings, QPel            : No
Format settings, GMC             : No warppoints
Format settings, Matrix          : Custom
Codec ID                         : XVID
Codec ID/Hint                    : XviD
Duration                         : 1h 48mn
Bit rate                         : 777 Kbps
Width                            : 544 pixels
Height                           : 288 pixels
Display aspect ratio             : 1.889
Frame rate                       : 23.976 fps
Color space                      : YUV
Chroma subsampling               : 4:2:0
Bit depth                        : 8 bits
Scan type                        : Progressive
Bits/(Pixel*Frame)               : 0.207
Stream size                      : 603 MiB (86%)
Writing library                  : XviD 1.2.1 (UTC 2008-12-04)

Audio
ID                               : 1
Format                           : MPEG Audio
Format version                   : Version 1
Format profile                   : Layer 3
Mode                             : Joint stereo
Mode extension                   : MS Stereo
Codec ID                         : 55
Codec ID/Hint                    : MP3
Duration                         : 1h 48mn
Bit rate mode                    : Variable
Bit rate                         : 113 Kbps
Nominal bit rate                 : 128 Kbps
Channel(s)                       : 2 channels
Sampling rate                    : 48.0 KHz
Stream size                      : 87.6 MiB (13%)
Alignment                        : Aligned on interleaves
Interleave, duration             : 24 ms (0.58 video frame)
Interleave, preload duration     : 486 ms
Writing library                  : LAME3.98r
Encoding settings                : -m j -V 4 -q 2 -lowpass 17 --abr 128
Language                         : Korean
Subtitles                        : English(*.srt)
Genre                            : Comedy

[URL]http://sensasian.com/product.php/en/V21764K-D/Twilight_Gangsters_[DVD]__[Korea_Version]/[/URL]

